<?xml version="1.0" encoding="UTF-8" standalone="no"?>
<!-- Created with Inkscape (http://www.inkscape.org/) -->

<svg
   xmlns:dc="http://purl.org/dc/elements/1.1/"
   xmlns:cc="http://creativecommons.org/ns#"
   xmlns:rdf="http://www.w3.org/1999/02/22-rdf-syntax-ns#"
   xmlns:svg="http://www.w3.org/2000/svg"
   xmlns="http://www.w3.org/2000/svg"
   xmlns:sodipodi="http://sodipodi.sourceforge.net/DTD/sodipodi-0.dtd"
   xmlns:inkscape="http://www.inkscape.org/namespaces/inkscape"
   width="191.33858"
   height="191.33858"
   id="svg2"
   version="1.1"
   inkscape:version="0.48.4 r9939"
   sodipodi:docname="cc_2.svg"
   inkscape:export-filename="/home/svet/Dropbox/creative-commons/visual_art/nalepki/cc_2.png"
   inkscape:export-xdpi="300"
   inkscape:export-ydpi="300">
  <defs
     id="defs4">
    <clipPath
       clipPathUnits="userSpaceOnUse"
       id="clipPath4013">
      <rect
         style="fill:#333333;fill-opacity:1;fill-rule:nonzero;stroke:none"
         id="rect4015"
         width="37.142857"
         height="28.928572"
         x="-522.47583"
         y="1010.1952" />
    </clipPath>
    <clipPath
       clipPathUnits="userSpaceOnUse"
       id="clipPath4013-3">
      <rect
         style="fill:#333333;fill-opacity:1;fill-rule:nonzero;stroke:none"
         id="rect4015-6"
         width="37.142857"
         height="28.928572"
         x="-522.47583"
         y="1010.1952" />
    </clipPath>
    <clipPath
       clipPathUnits="userSpaceOnUse"
       id="clipPath3170">
      <path
         sodipodi:type="arc"
         style="fill:#800000;fill-opacity:1;fill-rule:nonzero;stroke:none"
         id="path3172"
         sodipodi:cx="-37.628181"
         sodipodi:cy="57.745903"
         sodipodi:rx="20.960665"
         sodipodi:ry="20.960665"
         d="m -16.667517,57.745903 a 20.960665,20.960665 0 1 1 -41.921329,0 20.960665,20.960665 0 1 1 41.921329,0 z"
         transform="matrix(1.0722892,0,0,1.0722892,-629.56017,559.70634)" />
    </clipPath>
    <clipPath
       clipPathUnits="userSpaceOnUse"
       id="clipPath3207">
      <path
         id="path3209"
         d="m -668.71509,590.26246 c 8.951,0 16.531,3.105 22.742,9.315 6.208,6.172 9.315,13.733 9.315,22.685 0,8.954 -3.049,16.457 -9.145,22.514 -6.437,6.324 -14.076,9.486 -22.912,9.486 -8.649,0 -16.153,-3.143 -22.514,-9.429 -6.285,-6.285 -9.429,-13.807 -9.429,-22.57 0,-8.723 3.144,-16.285 9.429,-22.685 6.209,-6.211 13.714,-9.316 22.514,-9.316 z m 0.114,5.772 c -7.276,0 -13.428,2.572 -18.457,7.715 -5.22,5.296 -7.829,11.467 -7.829,18.513 0,7.125 2.59,13.257 7.77,18.4 5.181,5.182 11.352,7.771 18.514,7.771 7.123,0 13.334,-2.609 18.629,-7.828 5.029,-4.876 7.543,-10.99 7.543,-18.343 0,-7.313 -2.553,-13.485 -7.656,-18.513 -5.067,-5.145 -11.239,-7.715 -18.514,-7.715 z m -14.286,21.713 c 0.609,-3.924 2.189,-6.962 4.742,-9.114 2.552,-2.152 5.656,-3.228 9.314,-3.228 5.027,0 9.029,1.62 12,4.856 2.971,3.238 4.457,7.391 4.457,12.457 0,4.915 -1.543,9 -4.627,12.256 -3.088,3.256 -7.086,4.886 -12.002,4.886 -3.619,0 -6.743,-1.085 -9.371,-3.257 -2.629,-2.172 -4.209,-5.257 -4.743,-9.257 h 8.059 c 0.19,3.886 2.533,5.829 7.029,5.829 2.246,0 4.057,-0.972 5.428,-2.914 1.373,-1.942 2.059,-4.534 2.059,-7.771 0,-3.391 -0.629,-5.971 -1.885,-7.743 -1.258,-1.771 -3.066,-2.657 -5.43,-2.657 -4.268,0 -6.667,1.885 -7.2,5.656 h 2.343 l -6.342,6.343 -6.343,-6.343 2.512,0.001 0,0 z"
         inkscape:connector-curvature="0"
         style="fill:#000000"
         clip-path="url(#clipPath3170)"
         transform="matrix(2.4362937,2.6466882,-2.6466882,2.4362937,2559.6258,920.27281)" />
    </clipPath>
  </defs>
  <sodipodi:namedview
     id="base"
     pagecolor="#ffffff"
     bordercolor="#666666"
     borderopacity="1.0"
     inkscape:pageopacity="0.0"
     inkscape:pageshadow="2"
     inkscape:zoom="1.979899"
     inkscape:cx="83.106485"
     inkscape:cy="57.231796"
     inkscape:document-units="mm"
     inkscape:current-layer="layer1"
     showgrid="false"
     fit-margin-top="0"
     fit-margin-left="0"
     fit-margin-right="0"
     fit-margin-bottom="0"
     showguides="true"
     inkscape:guide-bbox="true"
     inkscape:window-width="1301"
     inkscape:window-height="744"
     inkscape:window-x="65"
     inkscape:window-y="24"
     inkscape:window-maximized="1">
    <sodipodi:guide
       orientation="1,0"
       position="7.0710678,240.92138"
       id="guide2987" />
    <sodipodi:guide
       orientation="1,0"
       position="184.85792,217.1828"
       id="guide2989" />
    <sodipodi:guide
       orientation="0,1"
       position="95.964492,183.84776"
       id="guide2991" />
    <sodipodi:guide
       orientation="0,1"
       position="97.479721,7.0710678"
       id="guide2993" />
  </sodipodi:namedview>
  <metadata
     id="metadata7">
    <rdf:RDF>
      <cc:Work
         rdf:about="">
        <dc:format>image/svg+xml</dc:format>
        <dc:type
           rdf:resource="http://purl.org/dc/dcmitype/StillImage" />
        <dc:title></dc:title>
      </cc:Work>
    </rdf:RDF>
  </metadata>
  <g
     inkscape:label="Layer 1"
     inkscape:groupmode="layer"
     id="layer1"
     transform="translate(625.71429,-563.88074)">
    <rect
       style="opacity:1;fill:#00ff00;fill-opacity:1;fill-rule:nonzero;stroke:none"
       id="rect2985"
       width="191.33858"
       height="191.33858"
       x="-625.71429"
       y="563.88074" />
    <text
       xml:space="preserve"
       style="font-size:10.26158428px;font-style:normal;font-variant:normal;font-weight:normal;font-stretch:normal;line-height:125%;letter-spacing:0px;word-spacing:0px;fill:#666666;fill-opacity:1;stroke:none;font-family:Ubuntu Mono;-inkscape-font-specification:Ubuntu Mono"
       id="text3037"
       sodipodi:linespacing="125%"
       x="-607.88208"
       y="616.02374"><tspan
         style="font-size:11.28774357px;font-weight:bold;fill:#666666;stroke:none;-inkscape-font-specification:Ubuntu Mono Bold"
         id="tspan3039">cc.falanster.by</tspan></text>
    <path
       style="fill:none;stroke:none"
       d="m -603.59342,676.11114 c 0,0 1.47339,8.95931 11.20274,20.37764 7.88796,9.25728 12.11528,13.03055 23.16129,21.55114 11.04599,8.52058 21.41503,14.96618 37.97044,24.5673"
       id="path3083"
       inkscape:connector-curvature="0"
       sodipodi:nodetypes="cszc" />
    <text
       xml:space="preserve"
       style="font-size:35.6798172px;font-style:normal;font-variant:normal;font-weight:normal;font-stretch:normal;line-height:125%;letter-spacing:0px;word-spacing:0px;fill:#000000;fill-opacity:1;stroke:none;font-family:Ubuntu Mono;-inkscape-font-specification:Ubuntu Mono"
       x="-607.49243"
       y="603.09949"
       id="text3033"
       sodipodi:linespacing="125%"><tspan
         sodipodi:role="line"
         id="tspan3035"
         x="-607.49243"
         y="603.09949">хай будзе</tspan></text>
    <text
       xml:space="preserve"
       style="font-size:40.13233566px;font-style:normal;font-variant:normal;font-weight:normal;font-stretch:normal;line-height:125%;letter-spacing:0px;word-spacing:0px;fill:#000000;fill-opacity:1;stroke:none;font-family:Ubuntu Mono;-inkscape-font-specification:Ubuntu Mono"
       x="-741.14105"
       y="-587.87689"
       id="text3193"
       sodipodi:linespacing="125%"
       transform="matrix(0,-1,1,0,0,0)"><tspan
         sodipodi:role="line"
         id="tspan3195"
         x="-741.14105"
         y="-587.87689">паўтор</tspan></text>
    <rect
       style="fill:#000000;fill-opacity:1;fill-rule:nonzero;stroke:none"
       id="rect3201"
       width="127.7843"
       height="124.75383"
       x="-780.26764"
       y="605.71674"
       clip-path="url(#clipPath3207)"
       transform="translate(205.48482,11.657364)" />
  </g>
</svg>
