<?xml version="1.0" encoding="UTF-8" standalone="no"?>
<!-- Created with Inkscape (http://www.inkscape.org/) -->

<svg
   xmlns:dc="http://purl.org/dc/elements/1.1/"
   xmlns:cc="http://creativecommons.org/ns#"
   xmlns:rdf="http://www.w3.org/1999/02/22-rdf-syntax-ns#"
   xmlns:svg="http://www.w3.org/2000/svg"
   xmlns="http://www.w3.org/2000/svg"
   xmlns:sodipodi="http://sodipodi.sourceforge.net/DTD/sodipodi-0.dtd"
   xmlns:inkscape="http://www.inkscape.org/namespaces/inkscape"
   width="191.33858"
   height="191.33858"
   id="svg2"
   version="1.1"
   inkscape:version="0.48.4 r9939"
   sodipodi:docname="cc_5.svg"
   inkscape:export-filename="/home/svet/Dropbox/creative-commons/visual_art/nalepki/cc_4.png"
   inkscape:export-xdpi="300"
   inkscape:export-ydpi="300">
  <defs
     id="defs4">
    <clipPath
       clipPathUnits="userSpaceOnUse"
       id="clipPath4013">
      <rect
         style="fill:#333333;fill-opacity:1;fill-rule:nonzero;stroke:none"
         id="rect4015"
         width="37.142857"
         height="28.928572"
         x="-522.47583"
         y="1010.1952" />
    </clipPath>
    <clipPath
       clipPathUnits="userSpaceOnUse"
       id="clipPath4013-3">
      <rect
         style="fill:#333333;fill-opacity:1;fill-rule:nonzero;stroke:none"
         id="rect4015-6"
         width="37.142857"
         height="28.928572"
         x="-522.47583"
         y="1010.1952" />
    </clipPath>
    <clipPath
       clipPathUnits="userSpaceOnUse"
       id="clipPath3170">
      <path
         sodipodi:type="arc"
         style="fill:#800000;fill-opacity:1;fill-rule:nonzero;stroke:none"
         id="path3172"
         sodipodi:cx="-37.628181"
         sodipodi:cy="57.745903"
         sodipodi:rx="20.960665"
         sodipodi:ry="20.960665"
         d="m -16.667517,57.745903 a 20.960665,20.960665 0 1 1 -41.921329,0 20.960665,20.960665 0 1 1 41.921329,0 z"
         transform="matrix(1.0722892,0,0,1.0722892,-629.56017,559.70634)" />
    </clipPath>
    <clipPath
       clipPathUnits="userSpaceOnUse"
       id="clipPath3207">
      <path
         id="path3209"
         d="m -668.71509,590.26246 c 8.951,0 16.531,3.105 22.742,9.315 6.208,6.172 9.315,13.733 9.315,22.685 0,8.954 -3.049,16.457 -9.145,22.514 -6.437,6.324 -14.076,9.486 -22.912,9.486 -8.649,0 -16.153,-3.143 -22.514,-9.429 -6.285,-6.285 -9.429,-13.807 -9.429,-22.57 0,-8.723 3.144,-16.285 9.429,-22.685 6.209,-6.211 13.714,-9.316 22.514,-9.316 z m 0.114,5.772 c -7.276,0 -13.428,2.572 -18.457,7.715 -5.22,5.296 -7.829,11.467 -7.829,18.513 0,7.125 2.59,13.257 7.77,18.4 5.181,5.182 11.352,7.771 18.514,7.771 7.123,0 13.334,-2.609 18.629,-7.828 5.029,-4.876 7.543,-10.99 7.543,-18.343 0,-7.313 -2.553,-13.485 -7.656,-18.513 -5.067,-5.145 -11.239,-7.715 -18.514,-7.715 z m -14.286,21.713 c 0.609,-3.924 2.189,-6.962 4.742,-9.114 2.552,-2.152 5.656,-3.228 9.314,-3.228 5.027,0 9.029,1.62 12,4.856 2.971,3.238 4.457,7.391 4.457,12.457 0,4.915 -1.543,9 -4.627,12.256 -3.088,3.256 -7.086,4.886 -12.002,4.886 -3.619,0 -6.743,-1.085 -9.371,-3.257 -2.629,-2.172 -4.209,-5.257 -4.743,-9.257 h 8.059 c 0.19,3.886 2.533,5.829 7.029,5.829 2.246,0 4.057,-0.972 5.428,-2.914 1.373,-1.942 2.059,-4.534 2.059,-7.771 0,-3.391 -0.629,-5.971 -1.885,-7.743 -1.258,-1.771 -3.066,-2.657 -5.43,-2.657 -4.268,0 -6.667,1.885 -7.2,5.656 h 2.343 l -6.342,6.343 -6.343,-6.343 2.512,0.001 0,0 z"
         inkscape:connector-curvature="0"
         style="fill:#000000"
         clip-path="url(#clipPath3170)"
         transform="matrix(2.4362937,2.6466882,-2.6466882,2.4362937,2559.6258,920.27281)" />
    </clipPath>
    <clipPath
       clipPathUnits="userSpaceOnUse"
       id="clipPath3251">
      <rect
         style="fill:#ff0000;fill-opacity:1;fill-rule:nonzero;stroke:none"
         id="rect3253"
         width="21.545002"
         height="45.58469"
         x="26.679621"
         y="5.694778" />
    </clipPath>
    <clipPath
       clipPathUnits="userSpaceOnUse"
       id="clipPath3268">
      <rect
         style="fill:#ff0000;fill-opacity:1;fill-rule:nonzero;stroke:none"
         id="rect3270"
         width="21.318214"
         height="45.58469"
         x="26.226048"
         y="5.9215717" />
    </clipPath>
    <clipPath
       clipPathUnits="userSpaceOnUse"
       id="clipPath3381">
      <path
         sodipodi:type="arc"
         style="fill:#ffff00;fill-opacity:1;fill-rule:nonzero;stroke:none"
         id="path3383"
         sodipodi:cx="-118.69292"
         sodipodi:cy="76.686264"
         sodipodi:rx="69.19545"
         sodipodi:ry="69.19545"
         d="m -49.497467,76.686264 a 69.19545,69.19545 0 1 1 -138.390903,0 69.19545,69.19545 0 1 1 138.390903,0 z"
         transform="matrix(0.36416925,0,0,0.36416925,80.331866,0.58868936)" />
    </clipPath>
  </defs>
  <sodipodi:namedview
     id="base"
     pagecolor="#ffffff"
     bordercolor="#666666"
     borderopacity="1.0"
     inkscape:pageopacity="0.0"
     inkscape:pageshadow="2"
     inkscape:zoom="1.979899"
     inkscape:cx="60.881637"
     inkscape:cy="80.655345"
     inkscape:document-units="mm"
     inkscape:current-layer="layer1"
     showgrid="false"
     fit-margin-top="0"
     fit-margin-left="0"
     fit-margin-right="0"
     fit-margin-bottom="0"
     showguides="true"
     inkscape:guide-bbox="true"
     inkscape:window-width="1301"
     inkscape:window-height="744"
     inkscape:window-x="65"
     inkscape:window-y="24"
     inkscape:window-maximized="1">
    <sodipodi:guide
       orientation="1,0"
       position="7.0710678,240.92138"
       id="guide2987" />
    <sodipodi:guide
       orientation="1,0"
       position="184.85792,217.1828"
       id="guide2989" />
    <sodipodi:guide
       orientation="0,1"
       position="95.964492,183.84776"
       id="guide2991" />
    <sodipodi:guide
       orientation="0,1"
       position="97.479721,7.0710678"
       id="guide2993" />
    <sodipodi:guide
       orientation="0,1"
       position="98.742411,16.667517"
       id="guide3272" />
  </sodipodi:namedview>
  <metadata
     id="metadata7">
    <rdf:RDF>
      <cc:Work
         rdf:about="">
        <dc:format>image/svg+xml</dc:format>
        <dc:type
           rdf:resource="http://purl.org/dc/dcmitype/StillImage" />
        <dc:title></dc:title>
      </cc:Work>
    </rdf:RDF>
  </metadata>
  <g
     inkscape:label="Layer 1"
     inkscape:groupmode="layer"
     id="layer1"
     transform="translate(625.71429,-563.88074)">
    <rect
       style="fill:#ff8000;fill-opacity:1;fill-rule:nonzero;stroke:none"
       id="rect2985"
       width="191.33858"
       height="191.33858"
       x="-625.71429"
       y="563.88074" />
    <text
       xml:space="preserve"
       style="font-size:35.96086884px;font-style:normal;font-variant:normal;font-weight:normal;font-stretch:normal;line-height:125%;letter-spacing:0px;word-spacing:0px;fill:#000000;fill-opacity:1;stroke:none;font-family:Ubuntu Mono;-inkscape-font-specification:Ubuntu Mono"
       x="-610.64325"
       y="600.74298"
       id="text3033"
       sodipodi:linespacing="125%"><tspan
         sodipodi:role="line"
         id="tspan3035"
         x="-610.64325"
         y="600.74298">хай будзе</tspan></text>
    <text
       xml:space="preserve"
       style="font-size:36.37710571px;font-style:normal;font-variant:normal;font-weight:normal;font-stretch:normal;line-height:125%;letter-spacing:0px;word-spacing:0px;fill:#000000;fill-opacity:1;stroke:none;font-family:Ubuntu Mono;-inkscape-font-specification:Ubuntu Mono"
       x="-611.88562"
       y="738.55182"
       id="text3193"
       sodipodi:linespacing="125%"><tspan
         sodipodi:role="line"
         id="tspan3195"
         x="-611.88562"
         y="738.55182">творчасць</tspan></text>
    <flowRoot
       xml:space="preserve"
       id="flowRoot3258"
       style="fill:black;stroke:none;stroke-opacity:1;stroke-width:1px;stroke-linejoin:miter;stroke-linecap:butt;fill-opacity:1;font-family:Ubuntu Mono;font-style:normal;font-weight:normal;font-size:10px;line-height:125%;letter-spacing:0px;word-spacing:0px;-inkscape-font-specification:Ubuntu Mono;font-stretch:normal;font-variant:normal"><flowRegion
         id="flowRegion3260"><rect
           id="rect3262"
           width="33.214287"
           height="71.071426"
           x="-89.285713"
           y="57.410007" /></flowRegion><flowPara
         id="flowPara3264"></flowPara></flowRoot>    <g
       id="g3362"
       transform="matrix(2.7860632,0,0,2.7860632,-635.1744,582.83939)"
       clip-path="url(#clipPath3381)">
      <path
         inkscape:connector-curvature="0"
         d="m 37.442,-3.5 c 8.99,0 16.571,3.085 22.743,9.256 6.208,6.172 9.315,13.753 9.315,22.744 0,8.992 -3.048,16.476 -9.145,22.458 C 53.88,57.32 46.241,60.5 37.442,60.5 28.756,60.5 21.252,57.338 14.929,51.015 8.644,44.728 5.5,37.225 5.5,28.5 5.5,19.738 8.644,12.157 14.929,5.757 21.1,-0.414 28.604,-3.5 37.442,-3.5 z M 12.7,19.872 c -0.952,2.628 -1.429,5.505 -1.429,8.629 0,7.086 2.59,13.22 7.77,18.4 5.219,5.144 11.391,7.715 18.514,7.715 7.201,0 13.409,-2.608 18.63,-7.829 1.867,-1.79 3.332,-3.657 4.398,-5.602 L 48.527,35.814 c -0.421,2.02 -1.439,3.667 -3.057,4.942 -1.622,1.276 -3.535,2.011 -5.744,2.2 v 4.915 H 36.012 V 42.956 C 32.469,42.92 29.23,41.644 26.298,39.129 l 4.4,-4.457 c 2.094,1.942 4.476,2.913 7.143,2.913 1.104,0 2.048,-0.246 2.83,-0.743 0.78,-0.494 1.172,-1.312 1.172,-2.457 0,-0.801 -0.287,-1.448 -0.858,-1.943 L 37.9,31.127 34.129,29.412 29.043,27.183 12.7,19.872 z M 37.557,2.214 c -7.276,0 -13.428,2.571 -18.457,7.714 -1.258,1.258 -2.439,2.686 -3.543,4.287 L 27.786,19.7 c 0.533,-1.676 1.542,-3.019 3.029,-4.028 1.484,-1.009 3.218,-1.571 5.2,-1.686 V 9.071 h 3.715 v 4.915 c 2.934,0.153 5.6,1.143 8,2.971 l -4.172,4.286 c -1.793,-1.257 -3.619,-1.885 -5.486,-1.885 -0.991,0 -1.876,0.191 -2.656,0.571 -0.781,0.381 -1.172,1.029 -1.172,1.943 0,0.267 0.095,0.533 0.285,0.8 l 4.057,1.83 2.8,1.257 5.144,2.285 16.397,7.314 c 0.535,-2.248 0.801,-4.533 0.801,-6.857 0,-7.353 -2.552,-13.543 -7.656,-18.573 C 51.005,4.785 44.831,2.214 37.557,2.214 z"
         id="path3364" />
    </g>
    <text
       xml:space="preserve"
       style="font-size:11.09952545px;font-style:normal;font-variant:normal;font-weight:normal;font-stretch:normal;line-height:125%;letter-spacing:0px;word-spacing:0px;fill:#f2f2f2;fill-opacity:1;stroke:none;font-family:Ubuntu Mono;-inkscape-font-specification:Ubuntu Mono"
       id="text3037"
       sodipodi:linespacing="125%"
       x="-266.01028"
       y="819.91052"
       transform="matrix(0.91594378,0.40130661,-0.40130661,0.91594378,0,0)"><tspan
         style="font-size:12.20947933px;font-weight:bold;fill:#f2f2f2;stroke:none;-inkscape-font-specification:Ubuntu Mono Bold"
         id="tspan3039">cc.falanster.by</tspan></text>
  </g>
</svg>
