<?xml version="1.0" encoding="UTF-8" standalone="no"?>
<!-- Generator: Adobe Illustrator 13.0.2, SVG Export Plug-In . SVG Version: 6.00 Build 14948)  -->

<svg
   xmlns:dc="http://purl.org/dc/elements/1.1/"
   xmlns:cc="http://creativecommons.org/ns#"
   xmlns:rdf="http://www.w3.org/1999/02/22-rdf-syntax-ns#"
   xmlns:svg="http://www.w3.org/2000/svg"
   xmlns="http://www.w3.org/2000/svg"
   xmlns:xlink="http://www.w3.org/1999/xlink"
   xmlns:sodipodi="http://sodipodi.sourceforge.net/DTD/sodipodi-0.dtd"
   xmlns:inkscape="http://www.inkscape.org/namespaces/inkscape"
   version="1.0"
   id="Layer_1"
   x="0px"
   y="0px"
   width="191.33858"
   height="191.33858"
   viewBox="5.5 -3.5 191.33858 191.33858"
   enable-background="new 5.5 -3.5 64 64"
   xml:space="preserve"
   inkscape:version="0.91 r13725"
   sodipodi:docname="cc_circle_3.svg"
   inkscape:export-filename="/home/svet/Dropbox/creative-commons/visual_art/nalepki/cc_circle_2.png"
   inkscape:export-xdpi="300"
   inkscape:export-ydpi="300"><metadata
     id="metadata15"><rdf:RDF><cc:Work
         rdf:about=""><dc:format>image/svg+xml</dc:format><dc:type
           rdf:resource="http://purl.org/dc/dcmitype/StillImage" /><dc:title /></cc:Work></rdf:RDF></metadata><defs
     id="defs13" /><sodipodi:namedview
     pagecolor="#ffffff"
     bordercolor="#666666"
     borderopacity="1"
     objecttolerance="10"
     gridtolerance="10"
     guidetolerance="10"
     inkscape:pageopacity="0"
     inkscape:pageshadow="2"
     inkscape:window-width="1855"
     inkscape:window-height="1056"
     id="namedview11"
     showgrid="false"
     fit-margin-top="0"
     fit-margin-left="0"
     fit-margin-right="0"
     fit-margin-bottom="0"
     inkscape:zoom="1.84375"
     inkscape:cx="-16.381147"
     inkscape:cy="69.92162"
     inkscape:window-x="65"
     inkscape:window-y="24"
     inkscape:window-maximized="1"
     inkscape:current-layer="Layer_1" /><path
     sodipodi:type="arc"
     style="fill:#000000;fill-opacity:1;fill-rule:nonzero;stroke:none"
     id="path2992"
     sodipodi:cx="-132.06779"
     sodipodi:cy="68.961967"
     sodipodi:rx="47.457626"
     sodipodi:ry="47.457626"
     d="m -84.610168,68.961967 a 47.457626,47.457626 0 1 1 -94.915252,0 47.457626,47.457626 0 1 1 94.915252,0 z"
     transform="matrix(2.0158887,0,0,2.0158887,367.40327,-46.850358)" /><circle
     d="M 66.049,28.631001 C 66.049,44.705248 53.018248,57.736 36.944,57.736 20.869753,57.736 7.8390007,44.705248 7.8390007,28.631001 c 0,-16.074248 13.0307523,-29.10500002 29.1049993,-29.10500002 16.074248,0 29.105,13.03075202 29.105,29.10500002 z"
     style="fill:#00ff00"
     sodipodi:ry="29.105"
     sodipodi:rx="29.105"
     sodipodi:cy="28.631001"
     sodipodi:cx="36.944"
     cx="36.944"
     cy="28.631001"
     r="29.105"
     id="circle3072"
     transform="matrix(2.7682087,0,0,2.7682087,-2.6385336,13.275339)" /><circle
     d="m 61.077148,31.788086 c 0,16.023269 -12.989426,29.012695 -29.012695,29.012695 -16.023269,0 -29.0126952,-12.989426 -29.0126952,-29.012695 0,-16.023269 12.9894262,-29.0126954 29.0126952,-29.0126954 16.023269,0 29.012695,12.9894264 29.012695,29.0126954 z"
     style="fill:#ffff00"
     sodipodi:ry="29.012695"
     sodipodi:rx="29.012695"
     sodipodi:cy="31.788086"
     sodipodi:cx="32.064453"
     cx="32.064453"
     cy="31.788086"
     r="29.012695"
     id="circle3113"
     transform="matrix(2.7681664,0,0,2.7681664,12.586614,3.5893161)" /><g
     id="g3115"
     transform="matrix(2.7681664,0,0,2.7681664,12.586614,3.5893161)"><path
       inkscape:connector-curvature="0"
       d="M 31.943848,0 C 40.896484,0 48.476562,3.105469 54.6875,9.314453 60.894531,15.486328 64.000977,23.045898 64.000977,32 c 0,8.954102 -3.048828,16.457031 -9.145508,22.513672 C 48.417969,60.837891 40.779297,64 31.942871,64 23.293945,64 15.790039,60.857422 9.429199,54.570312 3.144043,48.286133 0,40.761719 0,32.000977 0,23.277344 3.144043,15.715821 9.429199,9.316407 15.640137,3.105469 23.14502,0 31.943848,0 z m 0.116699,5.771484 c -7.275391,0 -13.429688,2.570312 -18.458496,7.714844 C 8.381836,18.783203 5.772949,24.954102 5.772949,32 c 0,7.125 2.589844,13.256836 7.77002,18.400391 5.181152,5.181641 11.352051,7.770508 18.515625,7.770508 7.123047,0 13.332031,-2.608398 18.626953,-7.828125 C 55.713867,45.466797 58.228516,39.353516 58.228516,32 c 0,-7.3125 -2.553711,-13.484375 -7.65625,-18.513672 C 45.504883,8.341797 39.333984,5.771484 32.060547,5.771484 z m 12.056641,18.684571 v 5.485352 H 20.859863 v -5.485352 h 23.257325 z m 0,10.287109 v 5.481445 H 20.859863 v -5.481445 h 23.257325 z"
       id="path3117" /></g><text
     xml:space="preserve"
     style="font-style:normal;font-variant:normal;font-weight:normal;font-stretch:normal;font-size:10px;line-height:125%;font-family:'Ubuntu Mono';-inkscape-font-specification:'Ubuntu Mono';letter-spacing:0px;word-spacing:0px;fill:#000000;fill-opacity:1;stroke:none"
     id="text3016"
     sodipodi:linespacing="125%"><textPath
       xlink:href="#path3020"
       id="textPath3022"
       style="font-size:24px;stroke:none">не чапай!</textPath></text>
<path
     sodipodi:type="arc"
     style="fill:none;stroke:none"
     id="path3020"
     sodipodi:cx="103.86441"
     sodipodi:cy="98.863998"
     sodipodi:rx="66.983047"
     sodipodi:ry="66.983047"
     d="m 170.84746,98.863998 a 66.983047,66.983047 0 1 1 -133.966097,0 66.983047,66.983047 0 1 1 133.966097,0 z"
     transform="matrix(-0.79129498,-0.61143459,-0.61143459,0.79129498,244.07714,76.853874)" /><path
     sodipodi:type="arc"
     style="fill:none;stroke:none"
     id="path3020-3"
     sodipodi:cx="103.86441"
     sodipodi:cy="98.863998"
     sodipodi:rx="66.983047"
     sodipodi:ry="66.983047"
     d="m 170.84746,98.863998 a 66.983047,66.983047 0 1 1 -133.966097,0 66.983047,66.983047 0 1 1 133.966097,0 z"
     transform="matrix(0.69424972,0.71973419,0.71973419,-0.69424972,-41.962423,85.72086)" /><text
     xml:space="preserve"
     style="font-size:10px;font-style:normal;font-variant:normal;font-weight:normal;font-stretch:normal;line-height:125%;letter-spacing:0px;word-spacing:0px;fill:#000000;fill-opacity:1;stroke:none;font-family:Ubuntu Mono;-inkscape-font-specification:Ubuntu Mono"
     id="text3043"
     sodipodi:linespacing="125%"><textPath
       xlink:href="#path3020-3"
       id="textPath3047"
       style="font-size:12px;stroke:none">creativecommons.by</textPath></text>
</svg>