<?xml version="1.0" encoding="UTF-8" standalone="no"?>
<!-- Generator: Adobe Illustrator 13.0.2, SVG Export Plug-In . SVG Version: 6.00 Build 14948)  -->

<svg
   xmlns:dc="http://purl.org/dc/elements/1.1/"
   xmlns:cc="http://creativecommons.org/ns#"
   xmlns:rdf="http://www.w3.org/1999/02/22-rdf-syntax-ns#"
   xmlns:svg="http://www.w3.org/2000/svg"
   xmlns="http://www.w3.org/2000/svg"
   xmlns:xlink="http://www.w3.org/1999/xlink"
   xmlns:sodipodi="http://sodipodi.sourceforge.net/DTD/sodipodi-0.dtd"
   xmlns:inkscape="http://www.inkscape.org/namespaces/inkscape"
   version="1.0"
   id="Layer_1"
   x="0px"
   y="0px"
   width="191.33858"
   height="191.33858"
   viewBox="5.5 -3.5 191.33858 191.33858"
   enable-background="new 5.5 -3.5 64 64"
   xml:space="preserve"
   inkscape:version="0.48.4 r9939"
   sodipodi:docname="cc_circle_5.svg"
   inkscape:export-filename="/home/svet/Dropbox/creative-commons/visual_art/nalepki/cc_circle_5.png"
   inkscape:export-xdpi="300"
   inkscape:export-ydpi="300"><metadata
     id="metadata15"><rdf:RDF><cc:Work
         rdf:about=""><dc:format>image/svg+xml</dc:format><dc:type
           rdf:resource="http://purl.org/dc/dcmitype/StillImage" /><dc:title /></cc:Work></rdf:RDF></metadata><defs
     id="defs13" /><sodipodi:namedview
     pagecolor="#ffffff"
     bordercolor="#666666"
     borderopacity="1"
     objecttolerance="10"
     gridtolerance="10"
     guidetolerance="10"
     inkscape:pageopacity="0"
     inkscape:pageshadow="2"
     inkscape:window-width="1301"
     inkscape:window-height="744"
     id="namedview11"
     showgrid="false"
     fit-margin-top="0"
     fit-margin-left="0"
     fit-margin-right="0"
     fit-margin-bottom="0"
     inkscape:zoom="1.84375"
     inkscape:cx="75.551056"
     inkscape:cy="69.92162"
     inkscape:window-x="65"
     inkscape:window-y="24"
     inkscape:window-maximized="1"
     inkscape:current-layer="Layer_1" /><path
     sodipodi:type="arc"
     style="fill:#000000;fill-opacity:1;fill-rule:nonzero;stroke:none"
     id="path2992"
     sodipodi:cx="-132.06779"
     sodipodi:cy="68.961967"
     sodipodi:rx="47.457626"
     sodipodi:ry="47.457626"
     d="m -84.610168,68.961967 a 47.457626,47.457626 0 1 1 -94.915252,0 47.457626,47.457626 0 1 1 94.915252,0 z"
     transform="matrix(2.0158887,0,0,2.0158887,367.40327,-46.850358)" /><circle
     d="M 66.621,28.500999 C 66.621,44.426683 53.710683,57.337 37.785,57.337 21.859317,57.337 8.9489994,44.426683 8.9489994,28.500999 c 0,-15.925683 12.9103176,-28.83599999 28.8360006,-28.83599999 15.925683,0 28.836,12.91031699 28.836,28.83599999 z"
     style="fill:#ff00ff"
     sodipodi:ry="28.836"
     sodipodi:rx="28.836"
     sodipodi:cy="28.500999"
     sodipodi:cx="37.785"
     cx="37.785"
     cy="28.500999"
     r="28.836"
     id="circle2994"
     transform="matrix(2.768252,0,0,2.768252,-2.6387717,13.275488)" /><path
     inkscape:connector-curvature="0"
     d="m 101.00735,3.586606 c 24.77863,0 45.87547,8.650788 63.27394,25.944058 8.3269,8.32967 14.65789,17.849689 18.9819,28.551751 4.32124,10.70483 6.48878,22.065737 6.48878,34.088255 0,12.12771 -2.13985,23.49139 -6.40573,34.08549 -4.27141,10.59687 -10.57472,19.95909 -18.90163,28.07838 -8.64525,8.54005 -18.45316,15.08143 -29.42375,19.61583 -10.96504,4.5344 -22.3038,6.8016 -34.00797,6.8016 -11.704172,0 -22.910056,-2.23675 -33.614886,-6.72409 -10.702062,-4.47903 -20.299592,-10.96504 -28.789821,-19.45251 -8.490229,-8.48746 -14.948561,-18.06007 -19.377764,-28.7123 -4.429203,-10.65224 -6.643805,-21.88027 -6.643805,-33.6924 0,-11.706938 2.239516,-22.96265 6.721316,-33.772674 C 23.78973,47.587972 30.303427,37.912931 38.843485,29.370105 55.71598,12.184797 76.436347,3.586606 101.00735,3.586606 z m 0.32112,15.978351 c -20.246996,0 -37.280051,7.067347 -51.096397,21.196505 -6.962154,7.067347 -12.313185,15.001158 -16.055861,23.806967 -3.748214,8.80581 -5.616784,18.00748 -5.616784,27.605009 0,9.492332 1.86857,18.641412 5.616784,27.441682 3.745445,8.81135 9.093707,16.66765 16.055861,23.57443 6.959386,6.90956 14.812917,12.17754 23.571666,15.82056 8.750445,3.63749 17.9272,5.45623 27.524731,5.45623 9.48957,0 18.6857,-1.84089 27.60778,-5.53374 8.911,-3.69561 16.94447,-9.01619 24.11978,-15.97558 13.81357,-13.498 20.71759,-30.42309 20.71759,-50.780813 0,-9.807917 -1.79382,-19.087098 -5.37871,-27.840311 -3.57935,-8.753213 -8.80304,-16.554147 -15.6517,-23.413875 -14.24542,-14.23712 -31.37813,-21.357064 -51.41474,-21.357064 z m -1.11007,57.89799 -11.867497,6.170434 c -1.267859,-2.632608 -2.820849,-4.4818 -4.664504,-5.536504 -1.846424,-1.051936 -3.559972,-1.580672 -5.143413,-1.580672 -7.906127,0 -11.864728,5.218155 -11.864728,15.660002 0,4.744783 1.002108,8.537293 3.003554,11.385823 2.004214,2.84853 4.957939,4.27418 8.861174,4.27418 5.168327,0 8.80581,-2.53295 10.917986,-7.59332 l 10.912448,5.53651 c -2.319793,4.32677 -5.536502,7.72619 -9.650125,10.20377 -4.108086,2.48036 -8.645251,3.71777 -13.60319,3.71777 -7.908896,0 -14.292485,-2.42222 -19.142463,-7.27774 -4.849977,-4.84998 -7.274966,-11.59897 -7.274966,-20.244225 0,-8.437632 2.452671,-15.131266 7.355246,-20.089205 4.902574,-4.955171 11.097922,-7.435525 18.588812,-7.435525 10.970583,-0.0055 18.824113,4.265876 23.571666,12.808702 z m 51.09363,0 -11.70694,6.170434 c -1.26509,-2.632608 -2.82362,-4.4818 -4.66727,-5.536504 -1.8492,-1.051936 -3.61811,-1.580672 -5.29844,-1.580672 -7.90889,0 -11.86749,5.218155 -11.86749,15.660002 0,4.744783 1.00487,8.537293 3.00632,11.385823 2.00144,2.84853 4.9524,4.27418 8.86117,4.27418 5.16279,0 8.80304,-2.53295 10.90968,-7.59332 l 11.07301,5.53651 c -2.42222,4.32677 -5.69429,7.72619 -9.80238,10.20377 -4.11362,2.48036 -8.59542,3.71777 -13.4454,3.71777 -8.01686,0 -14.41982,-2.42222 -19.21444,-7.27774 -4.80568,-4.84998 -7.20299,-11.59897 -7.20299,-20.244225 0,-8.437632 2.4499,-15.131266 7.35802,-20.089205 4.8998,-4.955171 11.09515,-7.435525 18.58327,-7.435525 10.96782,-0.0055 18.77705,4.265876 23.41388,12.808702 z"
     id="path2996" /><text
     xml:space="preserve"
     style="font-size:10px;font-style:normal;font-variant:normal;font-weight:normal;font-stretch:normal;line-height:125%;letter-spacing:0px;word-spacing:0px;fill:#000000;fill-opacity:1;stroke:none;font-family:Ubuntu Mono;-inkscape-font-specification:Ubuntu Mono"
     id="text3016"
     sodipodi:linespacing="125%"><textPath
       xlink:href="#path3020"
       id="textPath3022"
       style="font-size:24px;stroke:none">хай будзе!</textPath></text>
<path
     sodipodi:type="arc"
     style="fill:none;stroke:none"
     id="path3020"
     sodipodi:cx="103.86441"
     sodipodi:cy="98.863998"
     sodipodi:rx="66.983047"
     sodipodi:ry="66.983047"
     d="m 170.84746,98.863998 a 66.983047,66.983047 0 1 1 -133.966097,0 66.983047,66.983047 0 1 1 133.966097,0 z"
     transform="matrix(-0.91185139,0.41052048,0.41052048,0.91185139,155.44445,-41.130754)" /><path
     sodipodi:type="arc"
     style="fill:none;stroke:none"
     id="path3020-3"
     sodipodi:cx="103.86441"
     sodipodi:cy="98.863998"
     sodipodi:rx="66.983047"
     sodipodi:ry="66.983047"
     d="m 170.84746,98.863998 a 66.983047,66.983047 0 1 1 -133.966097,0 66.983047,66.983047 0 1 1 133.966097,0 z"
     transform="matrix(0.95603377,-0.29325653,-0.29325653,-0.95603377,31.180579,216.87936)" /><text
     xml:space="preserve"
     style="font-size:10px;font-style:normal;font-variant:normal;font-weight:normal;font-stretch:normal;line-height:125%;letter-spacing:0px;word-spacing:0px;fill:#000000;fill-opacity:1;stroke:none;font-family:Ubuntu Mono;-inkscape-font-specification:Ubuntu Mono"
     id="text3043"
     sodipodi:linespacing="125%"><textPath
       xlink:href="#path3020-3"
       id="textPath3047"
       style="font-size:12px;stroke:none">creativecommons.by</textPath></text>
</svg>