<?xml version="1.0" encoding="UTF-8" standalone="no"?>
<!-- Generator: Adobe Illustrator 13.0.2, SVG Export Plug-In . SVG Version: 6.00 Build 14948)  -->

<svg
   xmlns:dc="http://purl.org/dc/elements/1.1/"
   xmlns:cc="http://creativecommons.org/ns#"
   xmlns:rdf="http://www.w3.org/1999/02/22-rdf-syntax-ns#"
   xmlns:svg="http://www.w3.org/2000/svg"
   xmlns="http://www.w3.org/2000/svg"
   xmlns:xlink="http://www.w3.org/1999/xlink"
   xmlns:sodipodi="http://sodipodi.sourceforge.net/DTD/sodipodi-0.dtd"
   xmlns:inkscape="http://www.inkscape.org/namespaces/inkscape"
   version="1.0"
   id="Layer_1"
   x="0px"
   y="0px"
   width="191.33858"
   height="191.33858"
   viewBox="5.5 -3.5 191.33858 191.33858"
   enable-background="new 5.5 -3.5 64 64"
   xml:space="preserve"
   inkscape:version="0.48.4 r9939"
   sodipodi:docname="cc_circle_2.svg"
   inkscape:export-filename="/home/svet/Dropbox/creative-commons/visual_art/nalepki/cc_circle_1.png"
   inkscape:export-xdpi="300"
   inkscape:export-ydpi="300"><metadata
     id="metadata15"><rdf:RDF><cc:Work
         rdf:about=""><dc:format>image/svg+xml</dc:format><dc:type
           rdf:resource="http://purl.org/dc/dcmitype/StillImage" /><dc:title /></cc:Work></rdf:RDF></metadata><defs
     id="defs13" /><sodipodi:namedview
     pagecolor="#ffffff"
     bordercolor="#666666"
     borderopacity="1"
     objecttolerance="10"
     gridtolerance="10"
     guidetolerance="10"
     inkscape:pageopacity="0"
     inkscape:pageshadow="2"
     inkscape:window-width="1301"
     inkscape:window-height="744"
     id="namedview11"
     showgrid="false"
     fit-margin-top="0"
     fit-margin-left="0"
     fit-margin-right="0"
     fit-margin-bottom="0"
     inkscape:zoom="1.84375"
     inkscape:cx="75.551056"
     inkscape:cy="69.92162"
     inkscape:window-x="65"
     inkscape:window-y="24"
     inkscape:window-maximized="1"
     inkscape:current-layer="Layer_1" /><path
     sodipodi:type="arc"
     style="fill:#000000;fill-opacity:1;fill-rule:nonzero;stroke:none"
     id="path2992"
     sodipodi:cx="-132.06779"
     sodipodi:cy="68.961967"
     sodipodi:rx="47.457626"
     sodipodi:ry="47.457626"
     d="m -84.610168,68.961967 a 47.457626,47.457626 0 1 1 -94.915252,0 47.457626,47.457626 0 1 1 94.915252,0 z"
     transform="matrix(2.0158887,0,0,2.0158887,367.40327,-46.850358)" /><circle
     d="M 66.049,28.631001 C 66.049,44.705248 53.018248,57.736 36.944,57.736 20.869753,57.736 7.8390007,44.705248 7.8390007,28.631001 c 0,-16.074248 13.0307523,-29.10500002 29.1049993,-29.10500002 16.074248,0 29.105,13.03075202 29.105,29.10500002 z"
     style="fill:#00ff00"
     sodipodi:ry="29.105"
     sodipodi:rx="29.105"
     sodipodi:cy="28.631001"
     sodipodi:cx="36.944"
     cx="36.944"
     cy="28.631001"
     r="29.105"
     id="circle3072"
     transform="matrix(2.7682087,0,0,2.7682087,-2.6385336,13.275339)" /><g
     id="g3074"
     transform="matrix(2.7682087,0,0,2.7682087,-2.6385336,13.275339)"><path
       inkscape:connector-curvature="0"
       d="m 37.443,-3.5 c 8.951,0 16.531,3.105 22.742,9.315 6.208,6.172 9.315,13.733 9.315,22.685 0,8.954 -3.049,16.457 -9.145,22.514 C 53.918,57.338 46.279,60.5 37.443,60.5 28.794,60.5 21.29,57.357 14.929,51.071 8.644,44.786 5.5,37.264 5.5,28.501 5.5,19.778 8.644,12.216 14.929,5.816 21.138,-0.395 28.643,-3.5 37.443,-3.5 z m 0.114,5.772 c -7.276,0 -13.428,2.572 -18.457,7.715 -5.22,5.296 -7.829,11.467 -7.829,18.513 0,7.125 2.59,13.257 7.77,18.4 5.181,5.182 11.352,7.771 18.514,7.771 7.123,0 13.334,-2.609 18.629,-7.828 5.029,-4.876 7.543,-10.99 7.543,-18.343 0,-7.313 -2.553,-13.485 -7.656,-18.513 C 51.004,4.842 44.832,2.272 37.557,2.272 z M 23.271,23.985 c 0.609,-3.924 2.189,-6.962 4.742,-9.114 2.552,-2.152 5.656,-3.228 9.314,-3.228 5.027,0 9.029,1.62 12,4.856 2.971,3.238 4.457,7.391 4.457,12.457 0,4.915 -1.543,9 -4.627,12.256 -3.088,3.256 -7.086,4.886 -12.002,4.886 -3.619,0 -6.743,-1.085 -9.371,-3.257 -2.629,-2.172 -4.209,-5.257 -4.743,-9.257 H 31.1 c 0.19,3.886 2.533,5.829 7.029,5.829 2.246,0 4.057,-0.972 5.428,-2.914 1.373,-1.942 2.059,-4.534 2.059,-7.771 0,-3.391 -0.629,-5.971 -1.885,-7.743 -1.258,-1.771 -3.066,-2.657 -5.43,-2.657 -4.268,0 -6.667,1.885 -7.2,5.656 h 2.343 l -6.342,6.343 -6.343,-6.343 2.512,10e-4 0,0 z"
       id="path3076" /></g><text
     xml:space="preserve"
     style="font-size:10px;font-style:normal;font-variant:normal;font-weight:normal;font-stretch:normal;line-height:125%;letter-spacing:0px;word-spacing:0px;fill:#000000;fill-opacity:1;stroke:none;font-family:Ubuntu Mono;-inkscape-font-specification:Ubuntu Mono"
     id="text3016"
     sodipodi:linespacing="125%"><textPath
       xlink:href="#path3020"
       id="textPath3022"
       style="font-size:24px;stroke:none">паўтарай!</textPath></text>
<path
     sodipodi:type="arc"
     style="fill:none;stroke:none"
     id="path3020"
     sodipodi:cx="103.86441"
     sodipodi:cy="98.863998"
     sodipodi:rx="66.983047"
     sodipodi:ry="66.983047"
     d="m 170.84746,98.863998 a 66.983047,66.983047 0 1 1 -133.966097,0 66.983047,66.983047 0 1 1 133.966097,0 z"
     transform="matrix(-0.74560993,-0.66638265,-0.66638265,0.74560993,244.77372,87.083042)" /><path
     sodipodi:type="arc"
     style="fill:none;stroke:none"
     id="path3020-3"
     sodipodi:cx="103.86441"
     sodipodi:cy="98.863998"
     sodipodi:rx="66.983047"
     sodipodi:ry="66.983047"
     d="m 170.84746,98.863998 a 66.983047,66.983047 0 1 1 -133.966097,0 66.983047,66.983047 0 1 1 133.966097,0 z"
     transform="matrix(0.70322029,0.71097201,0.71097201,-0.70322029,-42.036929,87.512582)" /><text
     xml:space="preserve"
     style="font-size:10px;font-style:normal;font-variant:normal;font-weight:normal;font-stretch:normal;line-height:125%;letter-spacing:0px;word-spacing:0px;fill:#000000;fill-opacity:1;stroke:none;font-family:Ubuntu Mono;-inkscape-font-specification:Ubuntu Mono"
     id="text3043"
     sodipodi:linespacing="125%"><textPath
       xlink:href="#path3020-3"
       id="textPath3047"
       style="font-size:12px;stroke:none">creativecommons.by</textPath></text>
</svg>