<?xml version="1.0" encoding="UTF-8" standalone="no"?>
<!-- Generator: Adobe Illustrator 13.0.2, SVG Export Plug-In . SVG Version: 6.00 Build 14948)  -->

<svg
   xmlns:dc="http://purl.org/dc/elements/1.1/"
   xmlns:cc="http://creativecommons.org/ns#"
   xmlns:rdf="http://www.w3.org/1999/02/22-rdf-syntax-ns#"
   xmlns:svg="http://www.w3.org/2000/svg"
   xmlns="http://www.w3.org/2000/svg"
   xmlns:xlink="http://www.w3.org/1999/xlink"
   xmlns:sodipodi="http://sodipodi.sourceforge.net/DTD/sodipodi-0.dtd"
   xmlns:inkscape="http://www.inkscape.org/namespaces/inkscape"
   version="1.0"
   id="Layer_1"
   x="0px"
   y="0px"
   width="191.33858"
   height="191.33858"
   viewBox="5.5 -3.5 191.33858 191.33858"
   enable-background="new 5.5 -3.5 64 64"
   xml:space="preserve"
   inkscape:version="0.48.4 r9939"
   sodipodi:docname="cc_circle_1.svg"><metadata
     id="metadata15"><rdf:RDF><cc:Work
         rdf:about=""><dc:format>image/svg+xml</dc:format><dc:type
           rdf:resource="http://purl.org/dc/dcmitype/StillImage" /><dc:title /></cc:Work></rdf:RDF></metadata><defs
     id="defs13" /><sodipodi:namedview
     pagecolor="#ffffff"
     bordercolor="#666666"
     borderopacity="1"
     objecttolerance="10"
     gridtolerance="10"
     guidetolerance="10"
     inkscape:pageopacity="0"
     inkscape:pageshadow="2"
     inkscape:window-width="1301"
     inkscape:window-height="744"
     id="namedview11"
     showgrid="false"
     fit-margin-top="0"
     fit-margin-left="0"
     fit-margin-right="0"
     fit-margin-bottom="0"
     inkscape:zoom="1.84375"
     inkscape:cx="75.551056"
     inkscape:cy="69.92162"
     inkscape:window-x="65"
     inkscape:window-y="24"
     inkscape:window-maximized="1"
     inkscape:current-layer="Layer_1" /><path
     sodipodi:type="arc"
     style="fill:#000000;fill-opacity:1;fill-rule:nonzero;stroke:none"
     id="path2992"
     sodipodi:cx="-132.06779"
     sodipodi:cy="68.961967"
     sodipodi:rx="47.457626"
     sodipodi:ry="47.457626"
     d="m -84.610168,68.961967 a 47.457626,47.457626 0 1 1 -94.915252,0 47.457626,47.457626 0 1 1 94.915252,0 z"
     transform="matrix(2.0158887,0,0,2.0158887,367.40327,-46.850358)" /><circle
     d="m 65.913,28.806 c 0,15.616403 -12.659596,28.275999 -28.275999,28.275999 C 22.020598,57.081999 9.361002,44.422403 9.361002,28.806 9.361002,13.189597 22.020598,0.53000069 37.637001,0.53000069 53.253404,0.53000069 65.913,13.189597 65.913,28.806 z"
     style="fill:#00ffff"
     sodipodi:ry="28.275999"
     sodipodi:rx="28.275999"
     sodipodi:cy="28.806"
     sodipodi:cx="37.637001"
     id="circle5"
     r="28.275999"
     cy="28.806"
     cx="37.637001"
     transform="matrix(2.7682087,0,0,2.7682087,-2.6385336,13.275339)" /><g
     id="g7"
     transform="matrix(2.7682087,0,0,2.7682087,-2.6385336,13.275339)"><path
       inkscape:connector-curvature="0"
       id="path9"
       d="m 37.443,-3.5 c 8.988,0 16.57,3.085 22.742,9.257 6.208,6.21 9.315,13.791 9.315,22.743 0,8.991 -3.049,16.476 -9.145,22.456 C 53.879,57.319 46.242,60.5 37.443,60.5 28.794,60.5 21.29,57.356 14.929,51.07 8.644,44.784 5.5,37.262 5.5,28.5 5.5,19.739 8.644,12.158 14.929,5.758 21.101,-0.415 28.604,-3.5 37.443,-3.5 z m 0.114,5.772 c -7.276,0 -13.428,2.553 -18.457,7.657 -5.22,5.334 -7.829,11.525 -7.829,18.572 0,7.086 2.59,13.22 7.77,18.398 5.181,5.182 11.352,7.771 18.514,7.771 7.123,0 13.334,-2.607 18.629,-7.828 5.029,-4.838 7.543,-10.952 7.543,-18.343 0,-7.276 -2.553,-13.465 -7.656,-18.571 C 50.967,4.824 44.795,2.272 37.557,2.272 z m 8.572,18.285 V 33.642 H 42.473 V 49.184 H 32.529 V 33.643 H 28.873 V 20.557 c 0,-0.572 0.2,-1.057 0.599,-1.457 0.401,-0.399 0.887,-0.6 1.457,-0.6 h 13.144 c 0.533,0 1.01,0.2 1.428,0.6 0.417,0.4 0.628,0.886 0.628,1.457 z M 33.042,12.329 c 0,-3.008 1.485,-4.514 4.458,-4.514 2.973,0 4.457,1.504 4.457,4.514 0,2.971 -1.486,4.457 -4.457,4.457 -2.971,0 -4.458,-1.486 -4.458,-4.457 z" /></g><text
     xml:space="preserve"
     style="font-size:10px;font-style:normal;font-variant:normal;font-weight:normal;font-stretch:normal;line-height:125%;letter-spacing:0px;word-spacing:0px;fill:#000000;fill-opacity:1;stroke:none;font-family:Ubuntu Mono;-inkscape-font-specification:Ubuntu Mono"
     id="text3016"
     sodipodi:linespacing="125%"><textPath
       xlink:href="#path3020"
       id="textPath3022"
       style="font-size:24px;stroke:none">спасылайся!</textPath></text>
<path
     sodipodi:type="arc"
     style="fill:none;stroke:none"
     id="path3020"
     sodipodi:cx="103.86441"
     sodipodi:cy="98.863998"
     sodipodi:rx="66.983047"
     sodipodi:ry="66.983047"
     d="m 170.84746,98.863998 a 66.983047,66.983047 0 1 1 -133.966097,0 66.983047,66.983047 0 1 1 133.966097,0 z"
     transform="matrix(-0.60229742,-0.79827177,-0.79827177,0.60229742,242.96059,115.22742)" /><path
     sodipodi:type="arc"
     style="fill:none;stroke:none"
     id="path3020-3"
     sodipodi:cx="103.86441"
     sodipodi:cy="98.863998"
     sodipodi:rx="66.983047"
     sodipodi:ry="66.983047"
     d="m 170.84746,98.863998 a 66.983047,66.983047 0 1 1 -133.966097,0 66.983047,66.983047 0 1 1 133.966097,0 z"
     transform="matrix(0.70991047,0.70429193,0.70429193,-0.70991047,-42.084093,89.109797)" /><text
     xml:space="preserve"
     style="font-size:10px;font-style:normal;font-variant:normal;font-weight:normal;font-stretch:normal;line-height:125%;letter-spacing:0px;word-spacing:0px;fill:#000000;fill-opacity:1;stroke:none;font-family:Ubuntu Mono;-inkscape-font-specification:Ubuntu Mono"
     id="text3043"
     sodipodi:linespacing="125%"><textPath
       xlink:href="#path3020-3"
       id="textPath3047"
       style="font-size:12px;stroke:none">creativecommons.by</textPath></text>
</svg>