<?xml version="1.0" encoding="UTF-8" standalone="no"?>
<!-- Created with Inkscape (http://www.inkscape.org/) -->

<svg
   xmlns:dc="http://purl.org/dc/elements/1.1/"
   xmlns:cc="http://creativecommons.org/ns#"
   xmlns:rdf="http://www.w3.org/1999/02/22-rdf-syntax-ns#"
   xmlns:svg="http://www.w3.org/2000/svg"
   xmlns="http://www.w3.org/2000/svg"
   xmlns:sodipodi="http://sodipodi.sourceforge.net/DTD/sodipodi-0.dtd"
   xmlns:inkscape="http://www.inkscape.org/namespaces/inkscape"
   width="782.96167"
   height="395.07843"
   id="svg2"
   version="1.1"
   inkscape:version="0.48.4 r9939"
   sodipodi:docname="cc_listapad.svg"
   inkscape:export-filename="/home/svet/Dropbox/creative-commons/visual_art/images/cc_listapad.png"
   inkscape:export-xdpi="172.42224"
   inkscape:export-ydpi="172.42224">
  <defs
     id="defs4" />
  <sodipodi:namedview
     id="base"
     pagecolor="#ffffff"
     bordercolor="#666666"
     borderopacity="1.0"
     inkscape:pageopacity="0.0"
     inkscape:pageshadow="2"
     inkscape:zoom="0.98994949"
     inkscape:cx="394.12444"
     inkscape:cy="186.47087"
     inkscape:document-units="px"
     inkscape:current-layer="layer1"
     showgrid="false"
     showguides="true"
     inkscape:guide-bbox="true"
     inkscape:window-width="1301"
     inkscape:window-height="744"
     inkscape:window-x="65"
     inkscape:window-y="24"
     inkscape:window-maximized="1"
     fit-margin-top="0"
     fit-margin-left="0"
     fit-margin-right="0"
     fit-margin-bottom="0">
    <sodipodi:guide
       orientation="1,0"
       position="377.9037,341.27147"
       id="guide3783" />
  </sodipodi:namedview>
  <metadata
     id="metadata7">
    <rdf:RDF>
      <cc:Work
         rdf:about="">
        <dc:format>image/svg+xml</dc:format>
        <dc:type
           rdf:resource="http://purl.org/dc/dcmitype/StillImage" />
        <dc:title></dc:title>
      </cc:Work>
    </rdf:RDF>
  </metadata>
  <g
     inkscape:label="Layer 1"
     inkscape:groupmode="layer"
     id="layer1"
     transform="translate(65.766556,-251.04234)">
    <rect
       style="fill:#a0892c;fill-opacity:1;fill-rule:nonzero;stroke:none"
       id="rect2985"
       width="782.96167"
       height="395.07843"
       x="-65.766556"
       y="251.04234"
       inkscape:export-xdpi="172.44678"
       inkscape:export-ydpi="172.44678" />
    <path
       style="fill:#ffcc00;stroke:#000000;stroke-width:8;stroke-linecap:butt;stroke-linejoin:round;stroke-miterlimit:4;stroke-opacity:1;stroke-dasharray:none"
       d="m 41.195348,305.64409 c 0,0 14.532109,40.95409 40.954093,31.7064 26.421989,-9.2477 26.421989,-11.88992 26.421989,-11.88992 1.0979,38.94148 16.646,67.35163 39.63298,50.2018 26.42199,-21.1376 35.6697,-36.99078 35.6697,-36.99078 0,0 -3.9633,21.1376 11.8899,19.81649 15.85319,-1.32109 22.45869,-15.8532 22.45869,-15.8532 0,0 -5.28441,27.74309 0,25.1009 5.28439,-2.6422 -2.64221,18.49539 5.28439,19.8165 7.92659,1.32109 -38.20441,29.49408 -35.56221,50.63167 2.6422,21.13759 42.27518,3.96328 42.27518,3.96328 0,0 -5.2844,5.28441 0,10.56881 5.28441,5.28439 23.7798,3.9633 23.7798,3.9633 0,0 -21.13759,9.2477 -15.85319,15.8532 5.28439,6.60548 2.64219,11.88989 2.64219,11.88989 0,0 -30.38529,-10.5688 -39.63298,0 -9.2477,10.56879 -21.13759,31.70638 -21.13759,31.70638 0,0 -46.23849,5.28439 -64.73388,17.17431 -18.495397,11.88989 -25.100897,15.85318 -25.100897,15.85318 0,0 -11.889894,-14.53209 -18.495395,-3.96329 -6.605501,10.56879 -13.211001,22.45868 -13.211001,22.45868 0,0 10.568805,-26.42198 -5.284393,-25.10088 -15.853199,1.32109 -19.816503,-3.9633 -19.816503,-3.9633 0,0 3.963304,-5.28439 17.174306,-14.53209 13.211001,-9.2477 21.137591,-27.74309 5.284393,-33.02749 -15.853198,-5.28441 -39.632986,5.2844 -39.632986,5.2844 0,0 18.495395,-15.8532 1.321108,-14.53211 -17.17430605,1.32111 -27.743092,9.2477 -27.743092,9.2477 0,0 21.137591,-13.21099 11.8898935,-17.17429 -9.2476969,-3.96331 -19.8165015,-3.96331 -19.8165015,-3.96331 0,0 44.917378,-22.45868 56.807273,-38.31187 11.889893,-15.8532 -33.1349497,-61.20048 -33.1349497,-61.20048 0,0 17.1742877,13.211 23.7797877,1.32109 6.605501,-11.88989 11.889895,-66.05497 11.889895,-66.05497 z"
       id="path2989"
       inkscape:connector-curvature="0"
       sodipodi:nodetypes="cscccscssscscscscscscscsscscscscsc" />
    <text
       xml:space="preserve"
       style="font-size:120.77288818px;font-style:normal;font-variant:normal;font-weight:normal;font-stretch:normal;line-height:125%;letter-spacing:0px;word-spacing:0px;fill:#000000;fill-opacity:1;stroke:none;font-family:Ubuntu Mono;-inkscape-font-specification:Ubuntu Mono"
       x="53.184986"
       y="472.90225"
       id="text3759"
       sodipodi:linespacing="125%"><tspan
         sodipodi:role="line"
         id="tspan3761"
         x="53.184986"
         y="472.90225">сс</tspan></text>
    <path
       style="fill:#784421;stroke:#000000;stroke-width:8;stroke-linecap:butt;stroke-linejoin:round;stroke-miterlimit:4;stroke-opacity:1;stroke-dasharray:none"
       d="m 170,518.6479 c 0,0 8.57143,5.71428 17.14286,21.42857 8.57143,15.71428 14.28571,51.42857 14.28571,51.42857 l 14.28572,-21.42857 c 0,0 -10,-28.57143 -21.42858,-41.42857 -11.42857,-12.85715 -24.28571,-10 -24.28571,-10 z"
       id="path3763"
       inkscape:connector-curvature="0" />
    <text
       xml:space="preserve"
       style="font-size:40px;font-style:normal;font-variant:normal;font-weight:normal;font-stretch:normal;line-height:125%;letter-spacing:0px;word-spacing:0px;fill:#000000;fill-opacity:1;stroke:none;font-family:Ubuntu Mono;-inkscape-font-specification:Ubuntu Mono"
       x="310.35626"
       y="390.12653"
       id="text3765"
       sodipodi:linespacing="125%"><tspan
         sodipodi:role="line"
         id="tspan3767"
         x="310.35626"
         y="390.12653">Сустрэча філіялаў</tspan><tspan
         sodipodi:role="line"
         x="310.35626"
         y="440.12653"
         id="tspan3769" /></text>
    <text
       xml:space="preserve"
       style="font-size:42.53549576px;font-style:normal;font-variant:normal;font-weight:normal;font-stretch:normal;line-height:125%;letter-spacing:0px;word-spacing:0px;fill:#000000;fill-opacity:1;stroke:none;font-family:Ubuntu Mono;-inkscape-font-specification:Ubuntu Mono"
       x="310.23965"
       y="436.11102"
       id="text3771"
       sodipodi:linespacing="125%"><tspan
         sodipodi:role="line"
         id="tspan3773"
         x="310.23965"
         y="436.11102">Creative Commons</tspan></text>
    <text
       xml:space="preserve"
       style="font-size:37.59256744px;font-style:normal;font-variant:normal;font-weight:normal;font-stretch:normal;line-height:125%;letter-spacing:0px;word-spacing:0px;fill:#333333;fill-opacity:1;stroke:none;font-family:Ubuntu Mono;-inkscape-font-specification:Ubuntu Mono"
       x="310.48627"
       y="477.6564"
       id="text3775"
       sodipodi:linespacing="125%"><tspan
         sodipodi:role="line"
         id="tspan3777"
         x="310.48627"
         y="477.6564">Беларусі і Украіны</tspan></text>
    <text
       xml:space="preserve"
       style="font-size:33.81921005px;font-style:normal;font-variant:normal;font-weight:normal;font-stretch:normal;line-height:125%;letter-spacing:0px;word-spacing:0px;fill:#ffd42a;fill-opacity:1;stroke:none;font-family:Ubuntu Mono;-inkscape-font-specification:Ubuntu Mono"
       x="312.13715"
       y="515.88385"
       id="text3779"
       sodipodi:linespacing="125%"><tspan
         sodipodi:role="line"
         id="tspan3781"
         x="312.13715"
         y="515.88385">26-27 лістапада 2016</tspan></text>
    <text
       xml:space="preserve"
       style="font-size:18.88182831px;font-style:normal;font-variant:normal;font-weight:normal;font-stretch:normal;line-height:125%;letter-spacing:0px;word-spacing:0px;fill:#333333;fill-opacity:1;stroke:none;font-family:Ubuntu Mono;-inkscape-font-specification:Ubuntu Mono"
       x="534.94446"
       y="614.47339"
       id="text3785"
       sodipodi:linespacing="125%"><tspan
         sodipodi:role="line"
         id="tspan3787"
         x="534.94446"
         y="614.47339">falanster.by</tspan></text>
  </g>
</svg>
